<svg xmlns="http://www.w3.org/2000/svg" width="1566.9" height="137.066" viewBox="0 0 1566.9 137.066">
  <g id="getstarted" transform="translate(0 -850.833)">
    <path id="Subtraction_1" data-name="Subtraction 1" d="M1566.9,122.123H0V71.171c16.886-.646,36.876-3.158,62.911-7.906,23.482-4.282,49.841-10.015,77.748-16.084l.029-.006c17.2-3.741,34.987-7.609,53.739-11.507,24.635-5.12,46.741-9.4,67.581-13.1,25.777-4.567,49.946-8.3,73.89-11.425,13.168-1.716,26.37-3.251,39.24-4.563,13.633-1.389,27.338-2.573,40.733-3.518,14.1-.994,28.293-1.756,42.2-2.264C472.626.27,487.307,0,501.7,0c19.153,0,38.467.477,57.406,1.418,19.867.987,39.925,2.513,59.616,4.538,20.568,2.114,41.351,4.835,61.772,8.086,21.255,3.384,42.745,7.442,63.872,12.061,36.059,7.884,73.465,15.422,111.179,22.4,36.032,6.67,73.3,13.01,110.762,18.842,35.675,5.554,72.468,10.794,109.359,15.576,34.988,4.535,70.978,8.775,106.969,12.6,123.841,13.173,253.116,22.121,384.234,26.595h.027Z" transform="translate(0 865.776)" fill="#fff"/>
    <g id="Group_7" data-name="Group 7" transform="translate(339.391 850.833)">
      <path id="Intersection_6" data-name="Intersection 6" d="M0,25.367c7.714-2.182,15.347-4.214,22.957-6.115,11.868-2.964,23.767-5.616,35.368-7.882,12.288-2.4,24.639-4.444,36.712-6.076,12.7-1.718,25.5-3.034,38.032-3.911C146.188.465,159.42,0,172.4,0c17.262,0,34.67.824,51.739,2.449,17.906,1.7,35.984,4.341,53.732,7.838a567.544,567.544,0,0,1,55.675,13.966q10.178,3.105,20.411,6.64C281.836,64.462,219.611,76.007,168.105,76,76.533,76,18.883,39.5,0,25.367Z" fill="#30b469"/>
      <path id="Path_15" data-name="Path 15" d="M0,0,13.356,13.356H0" transform="translate(156.633 47.454) rotate(-45)" fill="#fff"/>
      <text id="Get_started" data-name="Get started" transform="translate(113.304 36.142)" fill="#fff" font-size="21" font-family="Rubik-Light, Rubik" font-weight="300"><tspan x="0" y="0">Get started</tspan></text>
    </g>
  </g>
</svg>
